<svg width="180" height="180" viewBox="0 0 180 180" fill="none" xmlns="http://www.w3.org/2000/svg">
<g clip-path="url(#clip0_1_4)">
<rect width="180" height="180" fill="black"/>
<path fill-rule="evenodd" clip-rule="evenodd" d="M85.6429 94.6726C89.9661 94.6726 94.1276 94.3718 98.1327 93.7662C102.132 93.1657 105.657 91.9954 108.701 90.2584C111.74 88.5265 114.182 86.0713 116.026 82.9051C117.864 79.7359 118.788 75.5877 118.788 70.4574C118.788 65.3292 117.864 61.1779 116.026 58.0107C114.182 54.8415 111.74 52.3914 108.701 50.6554C105.657 48.9225 102.132 47.7522 98.1327 47.1476C94.1276 46.5461 89.9661 46.2412 85.6429 46.2412H56.3411V94.6726H85.6429ZM95.971 18.6328C106.697 18.6328 115.823 20.1028 123.351 23.045C130.875 25.9881 136.999 29.8744 141.724 34.7009C146.446 39.5314 149.891 45.0361 152.053 51.2201C154.214 57.4082 155.294 63.8192 155.294 70.4574C155.294 76.9452 154.214 83.3215 152.053 89.5801C149.891 95.8429 146.446 101.386 141.724 106.214C136.999 111.044 130.875 114.926 123.351 117.869C115.823 120.811 106.697 122.281 95.971 122.281H56.3411V180.216H18.6328V18.6328H95.971ZM155.829 99.1976C156.31 91.6551 158.31 85.3933 161.834 80.4145C165.354 75.4356 169.839 71.4398 175.284 68.4209C180.726 65.4041 186.851 63.2538 193.658 61.97C200.461 60.6902 207.306 60.0468 214.193 60.0468C220.438 60.0468 226.761 60.4641 233.167 61.2917C239.57 62.1224 245.416 63.7449 250.7 66.1571C255.984 68.5724 260.308 71.9278 263.67 76.2274C267.032 80.528 268.714 86.224 268.714 93.3143V154.19C268.714 159.474 269.033 164.527 269.675 169.353C270.312 174.184 271.435 177.805 273.037 180.216H238.451C237.81 178.405 237.288 176.56 236.89 174.672C236.489 172.787 236.207 170.864 236.05 168.901C230.604 174.184 224.198 177.88 216.835 179.99C209.469 182.102 201.944 183.158 194.258 183.158C188.333 183.158 182.809 182.479 177.686 181.122C172.56 179.764 168.079 177.653 164.236 174.785C160.392 171.92 157.39 168.299 155.23 163.922C153.067 159.549 151.987 154.343 151.987 148.307C151.987 141.67 153.226 136.199 155.71 131.899C158.189 127.6 161.391 124.17 165.317 121.603C169.238 119.038 173.722 117.115 178.767 115.832C183.811 114.552 188.892 113.533 194.018 112.776C199.141 112.024 204.185 111.419 209.149 110.966C214.11 110.514 218.516 109.835 222.359 108.929C226.203 108.024 229.242 106.704 231.486 104.969C233.727 103.236 234.766 100.707 234.608 97.3869C234.608 93.9179 234.008 91.164 232.807 89.1273C231.606 87.0915 230.004 85.5069 228.004 84.3755C226 83.243 223.681 82.4901 221.038 82.1126C218.397 81.7372 215.552 81.5469 212.512 81.5469C205.787 81.5469 200.503 82.9044 196.66 85.6194C192.818 88.3355 190.573 92.8622 189.935 99.1976H155.829ZM234.608 122.961C233.167 124.17 231.366 125.11 229.205 125.789C227.043 126.468 224.72 127.034 222.239 127.486C219.755 127.939 217.153 128.318 214.433 128.618C211.709 128.922 208.988 129.297 206.267 129.75C203.704 130.202 201.182 130.806 198.702 131.56C196.217 132.317 194.055 133.336 192.216 134.615C190.374 135.898 188.892 137.522 187.773 139.481C186.651 141.443 186.092 143.932 186.092 146.949C186.092 149.817 186.651 152.231 187.773 154.19C188.892 156.153 190.415 157.699 192.337 158.831C194.258 159.961 196.498 160.753 199.061 161.207C201.62 161.659 204.263 161.885 206.988 161.885C213.713 161.885 218.914 160.832 222.599 158.717C226.281 156.606 229.002 154.078 230.766 151.136C232.526 148.194 233.606 145.216 234.008 142.197C234.405 139.179 234.608 136.766 234.608 134.955V122.961ZM311.842 63.2157V84.9409H312.323C313.921 81.3205 316.083 77.9641 318.808 74.8696C321.529 71.7801 324.651 69.1388 328.174 66.9486C331.695 64.7634 335.459 63.0663 339.463 61.8571C343.464 60.651 347.629 60.0475 351.952 60.0475C354.193 60.0475 356.674 60.425 359.398 61.1779V91.0502C357.795 90.7504 355.875 90.4855 353.634 90.2584C351.39 90.0323 349.228 89.9198 347.149 89.9198C340.904 89.9198 335.62 90.9029 331.297 92.8619C326.975 94.824 323.492 97.5011 320.849 100.895C318.208 104.29 316.323 108.251 315.205 112.776C314.083 117.303 313.524 122.207 313.524 127.486V180.216H279.418V63.2157H311.842ZM364.671 99.1976C365.152 91.6551 367.151 85.3933 370.676 80.4145C374.195 75.4356 378.68 71.4398 384.125 68.4209C389.567 65.4041 395.692 63.2538 402.499 61.97C409.302 60.6902 416.148 60.0468 423.034 60.0468C429.279 60.0468 435.602 60.4641 442.009 61.2917C448.41 62.1224 454.258 63.7449 459.542 66.1571C464.826 68.5724 469.149 71.9278 472.511 76.2274C475.874 80.528 477.556 86.224 477.556 93.3143V154.19C477.556 159.474 477.874 164.527 478.515 169.353C479.154 174.184 480.276 177.805 481.879 180.216H447.293C446.651 178.405 446.129 176.56 445.732 174.672C445.33 172.787 445.049 170.864 444.891 168.901C439.446 174.184 433.039 177.88 425.677 179.99C418.31 182.102 410.785 183.158 403.1 183.158C397.174 183.158 391.649 182.479 386.528 181.122C381.401 179.764 376.92 177.653 373.077 174.785C369.234 171.92 366.232 168.299 364.07 163.922C361.909 159.549 360.828 154.343 360.828 148.307C360.828 141.67 362.067 136.199 364.551 131.899C367.031 127.6 370.233 124.17 374.158 121.603C378.08 119.038 382.564 117.115 387.608 115.832C392.652 114.552 397.733 113.533 402.859 112.776C407.982 112.024 413.026 111.419 417.99 110.966C422.952 110.514 427.357 109.835 431.201 108.929C435.043 108.024 438.083 106.704 440.327 104.969C442.568 103.236 443.607 100.707 443.45 97.3869C443.45 93.9179 442.849 91.164 441.648 89.1273C440.448 87.0915 438.845 85.5069 436.845 84.3755C434.841 83.243 432.521 82.4901 429.879 82.1126C427.238 81.7372 424.392 81.5469 421.354 81.5469C414.629 81.5469 409.345 82.9044 405.501 85.6194C401.658 88.3355 399.415 92.8622 398.777 99.1976H364.671ZM443.45 122.961C442.009 124.17 440.208 125.11 438.046 125.789C435.884 126.468 433.561 127.034 431.08 127.486C428.596 127.939 425.995 128.318 423.274 128.618C420.55 128.922 417.829 129.297 415.109 129.75C412.545 130.202 410.023 130.806 407.544 131.56C405.058 132.317 402.897 133.336 401.058 134.615C399.215 135.898 397.733 137.522 396.615 139.481C395.492 141.443 394.933 143.932 394.933 146.949C394.933 149.817 395.492 152.231 396.615 154.19C397.733 156.153 399.256 157.699 401.178 158.831C403.1 159.961 405.341 160.753 407.903 161.207C410.463 161.659 413.104 161.885 415.828 161.885C422.554 161.885 427.756 160.832 431.441 158.717C435.122 156.606 437.843 154.078 439.607 151.136C441.367 148.194 442.447 145.216 442.849 142.197C443.247 139.179 443.45 136.766 443.45 134.955V122.961ZM578.651 167.395C574.646 173.732 569.403 178.297 562.918 181.086C556.433 183.876 549.108 185.273 540.943 185.273C531.654 185.273 523.488 183.575 516.444 180.181C509.397 176.787 503.595 172.187 499.031 166.377C494.467 160.57 491.022 153.894 488.703 146.348C486.38 138.806 485.22 130.959 485.22 122.812C485.22 114.97 486.38 107.388 488.703 100.068C491.022 92.7523 494.467 86.3024 499.031 80.7189C503.595 75.1395 509.317 70.6476 516.204 67.2533C523.086 63.859 531.095 62.1619 540.222 62.1619C547.585 62.1619 554.591 63.6329 561.237 66.5751C567.88 69.5172 573.126 73.8557 576.969 79.5875H577.449V20.7472H611.555V182.331H579.131V167.395H578.651ZM577.209 109.573C576.248 105.124 574.605 101.2 572.285 97.8059C569.962 94.4116 566.96 91.6598 563.279 89.5452C559.594 87.4338 554.951 86.376 549.348 86.376C543.742 86.376 539.021 87.4338 535.178 89.5452C531.335 91.6598 528.251 94.4494 525.931 97.9184C523.608 101.391 521.927 105.352 520.888 109.799C519.843 114.251 519.326 118.891 519.326 123.718C519.326 128.243 519.886 132.77 521.007 137.296C522.125 141.822 523.927 145.861 526.411 149.404C528.893 152.95 532.014 155.819 535.778 158.004C539.539 160.192 544.064 161.284 549.348 161.284C554.951 161.284 559.635 160.231 563.399 158.116C567.159 156.005 570.161 153.176 572.405 149.629C574.646 146.087 576.248 142.049 577.209 137.522C578.17 132.996 578.651 128.322 578.651 123.491C578.651 118.665 578.17 114.025 577.209 109.573ZM621.238 182.331V65.3301H655.343V182.331H621.238ZM621.238 52.3893V20.7472H655.343V52.3893H621.238ZM696.493 153.251C698.013 155.741 699.976 157.777 702.378 159.361C704.779 160.946 707.542 162.116 710.664 162.869C713.786 163.626 717.028 164 720.39 164C722.793 164 725.315 163.738 727.957 163.208C730.599 162.682 733.001 161.85 735.162 160.719C737.324 159.587 739.125 158.081 740.566 156.193C742.008 154.308 742.728 151.932 742.728 149.064C742.728 144.237 739.324 140.616 732.52 138.2C725.713 135.789 716.226 133.375 704.059 130.959C699.095 129.906 694.249 128.661 689.528 127.225C684.804 125.794 680.6 123.908 676.918 121.568C673.233 119.231 670.273 116.288 668.032 112.742C665.788 109.199 664.669 104.86 664.669 99.7289C664.669 92.1864 666.231 86.0014 669.353 81.1719C672.476 76.3444 676.596 72.5368 681.722 69.7431C686.845 66.9534 692.61 64.9913 699.015 63.8588C705.418 62.7284 711.985 62.1617 718.71 62.1617C725.435 62.1617 731.957 62.7663 738.285 63.9724C744.608 65.1815 750.252 67.2183 755.217 70.0837C760.178 72.9501 764.302 76.7587 767.587 81.5115C770.866 86.2643 772.829 92.2611 773.471 99.5018H741.047C740.566 93.3189 738.082 89.1318 733.601 86.9426C729.116 84.7575 723.832 83.6618 717.749 83.6618C715.827 83.6618 713.745 83.7733 711.504 84.0004C709.26 84.2275 707.219 84.7176 705.38 85.4715C703.537 86.2285 701.976 87.3211 700.697 88.7533C699.413 90.1885 698.775 92.1117 698.775 94.5239C698.775 97.3914 699.894 99.7289 702.138 101.539C704.378 103.35 707.301 104.821 710.905 105.953C714.507 107.084 718.627 108.102 723.274 109.007C727.915 109.913 732.64 110.896 737.445 111.95C742.405 113.006 747.249 114.29 751.974 115.797C756.696 117.307 760.899 119.305 764.584 121.794C768.265 124.284 771.226 127.377 773.471 131.073C775.712 134.771 776.833 139.333 776.833 144.764C776.833 152.459 775.19 158.908 771.91 164.114C768.626 169.319 764.344 173.506 759.06 176.674C753.776 179.842 747.73 182.07 740.926 183.349C734.119 184.63 727.196 185.273 720.152 185.273C712.946 185.273 705.898 184.594 699.015 183.236C692.129 181.879 686.004 179.615 680.641 176.447C675.276 173.28 670.873 169.093 667.431 163.887C663.987 158.682 662.106 152.158 661.788 144.312H694.212C694.212 147.785 694.97 150.762 696.493 153.251ZM786.262 98.4847C789.302 90.8676 793.626 84.3787 799.232 79.0214C804.835 73.6681 811.56 69.5178 819.408 66.5747C827.251 63.6325 836.059 62.1625 845.827 62.1625C855.592 62.1625 864.441 63.6325 872.366 66.5747C880.293 69.5178 887.055 73.6681 892.661 79.0214C898.265 84.3787 902.588 90.8676 905.632 98.4847C908.671 106.105 910.195 114.591 910.195 123.944C910.195 133.3 908.671 141.748 905.632 149.29C902.588 156.836 898.265 163.286 892.661 168.639C887.055 173.997 880.293 178.109 872.366 180.973C864.441 183.838 855.592 185.273 845.827 185.273C836.059 185.273 827.251 183.838 819.408 180.973C811.56 178.109 804.835 173.997 799.232 168.639C793.626 163.286 789.302 156.836 786.262 149.29C783.219 141.748 781.699 133.3 781.699 123.944C781.699 114.591 783.219 106.105 786.262 98.4847ZM817.246 137.636C818.207 142.087 819.846 146.086 822.17 149.63C824.489 153.176 827.573 156.005 831.416 158.116C835.26 160.23 840.063 161.284 845.827 161.284C851.591 161.284 856.432 160.23 860.358 158.116C864.28 156.005 867.402 153.176 869.725 149.63C872.044 146.086 873.688 142.087 874.649 137.636C875.61 133.187 876.089 128.622 876.089 123.944C876.089 119.269 875.61 114.664 874.649 110.14C873.688 105.613 872.044 101.617 869.725 98.1441C867.402 94.6751 864.28 91.8466 860.358 89.6584C856.432 87.4733 851.591 86.3766 845.827 86.3766C840.063 86.3766 835.26 87.4733 831.416 89.6584C827.573 91.8466 824.489 94.6751 822.17 98.1441C819.846 101.617 818.207 105.613 817.246 110.14C816.285 114.664 815.805 119.269 815.805 123.944C815.805 128.622 816.285 133.187 817.246 137.636Z" fill="white"/>
</g>
<defs>
<clipPath id="clip0_1_4">
<rect width="180" height="180" fill="white"/>
</clipPath>
</defs>
</svg>
